<svg xmlns="http://www.w3.org/2000/svg" viewBox="0 0 24 24" color="#03a685" class="w-5 mr-2"><g fill="currentColor"><path d="M15.19 8.606V4.3a.625.625 0 00-.622-.625H6.384V.672a.624.624 0 00-.407-.588.62.62 0 00-.687.178L.367 6.048a.628.628 0 000 .812l4.923 5.778a.626.626 0 00.687.182.624.624 0 00.407-.588V9.228h8.184a.62.62 0 00.621-.622zm-1.244-.625H5.762a.625.625 0 00-.621.625v1.938l-3.484-4.09L5.14 2.362V4.3c0 .344.28.625.621.625h8.184v3.056z"></path><path d="M22.708 13.028L17.785 7.25a.616.616 0 00-.687-.178.624.624 0 00-.407.587v3.003H8.507a.625.625 0 00-.622.625v4.304c0 .343.28.625.622.625h8.184v3.003a.624.624 0 00.621.625.626.626 0 00.473-.219l4.923-5.781a.632.632 0 000-.816zm-4.774 4.497v-1.937a.625.625 0 00-.622-.625H9.13v-3.054h8.183a.625.625 0 00.622-.625V9.347l3.484 4.09-3.484 4.088z"></path></g></svg>