<?xml version="1.0" standalone="no"?>
<!DOCTYPE svg PUBLIC "-//W3C//DTD SVG 20010904//EN"
 "http://www.w3.org/TR/2001/REC-SVG-20010904/DTD/svg10.dtd">
<svg version="1.0" xmlns="http://www.w3.org/2000/svg"
 width="1490.000000pt" height="1490.000000pt" viewBox="0 0 1490.000000 1490.000000"
 preserveAspectRatio="xMidYMid meet">
<metadata>
Created by potrace 1.14, written by Peter Selinger 2001-2017
</metadata>
<g transform="translate(0.000000,1490.000000) scale(0.100000,-0.100000)"
fill="#000000" stroke="none">
<path d="M10343 12560 c-155 -41 -336 -137 -505 -270 -119 -93 -435 -412 -563
-568 -61 -73 -112 -138 -114 -144 -2 -6 -11 -18 -20 -27 -23 -23 -111 -138
-111 -146 0 -3 -9 -16 -21 -28 -48 -52 -449 -646 -449 -666 0 -5 -4 -11 -9
-13 -19 -7 -437 -706 -578 -968 -17 -30 -53 -97 -82 -147 -81 -147 -282 -544
-357 -706 -37 -81 -71 -144 -75 -140 -3 5 -75 143 -159 308 -229 450 -558
1057 -621 1147 -11 14 -19 29 -19 31 0 11 -202 342 -211 345 -5 2 -9 8 -9 14
0 14 -120 202 -131 206 -5 2 -9 8 -9 14 0 12 -61 102 -72 106 -4 2 -8 8 -8 14
0 30 -388 561 -606 828 -214 262 -556 582 -702 656 -20 11 -39 22 -42 25 -3 4
-27 17 -55 31 -334 165 -613 140 -965 -87 -487 -313 -1218 -1273 -1892 -2485
-290 -522 -606 -1153 -828 -1655 -51 -115 -103 -232 -115 -260 -51 -111 -225
-539 -229 -560 -1 -5 -5 -15 -8 -21 -26 -41 -252 -675 -347 -974 -82 -258
-243 -856 -267 -989 -3 -14 -20 -100 -39 -191 -19 -91 -37 -183 -40 -205 -3
-22 -12 -79 -20 -126 -8 -47 -17 -106 -19 -130 -3 -24 -13 -105 -22 -179 -13
-101 -18 -215 -18 -455 0 -315 2 -346 39 -565 16 -90 51 -225 87 -330 42 -123
143 -340 159 -340 5 0 9 -5 9 -10 0 -46 228 -281 352 -363 142 -94 324 -172
443 -192 125 -20 162 -23 280 -20 417 10 775 186 1166 575 126 125 179 183
284 311 10 13 61 81 112 151 317 433 613 970 878 1593 37 88 73 174 80 190
133 309 472 1241 500 1373 4 19 10 30 14 25 4 -4 22 -62 41 -128 33 -122 145
-450 205 -605 18 -47 70 -182 115 -300 101 -263 233 -582 330 -795 93 -206
259 -538 274 -547 6 -4 8 -8 4 -8 -11 0 82 -164 237 -419 39 -64 150 -227 157
-229 4 -2 8 -8 8 -14 0 -13 175 -245 280 -370 159 -191 423 -448 459 -448 6 0
11 -4 11 -9 0 -14 225 -156 257 -163 5 -1 14 -8 21 -15 8 -7 18 -11 23 -8 5 4
9 2 9 -3 0 -19 273 -116 385 -137 145 -26 352 -32 475 -13 182 28 534 213 780
411 164 132 294 272 529 572 39 51 157 219 210 300 94 145 261 427 261 442 0
7 4 13 9 13 9 0 310 595 315 621 1 8 10 28 19 45 25 49 188 431 268 630 183
459 308 810 333 934 3 14 12 47 20 73 9 27 15 52 14 55 -2 8 13 63 19 75 5 8
26 -51 143 -388 52 -152 113 -315 142 -385 6 -14 12 -30 13 -36 6 -25 237
-599 303 -749 156 -360 360 -770 506 -1020 304 -519 638 -945 921 -1175 179
-146 427 -293 630 -373 108 -43 220 -57 410 -52 221 7 397 47 583 136 160 75
295 176 382 283 28 33 55 66 60 73 54 66 193 325 203 378 2 11 9 34 16 50 27
66 76 273 86 365 2 25 9 83 14 130 5 47 9 189 9 315 -1 210 -4 276 -22 505 -9
108 -27 264 -32 271 -2 4 -6 27 -9 50 -21 186 -173 859 -255 1134 -12 39 -30
104 -41 145 -11 41 -23 79 -27 85 -3 5 -8 19 -9 30 -5 34 -193 599 -221 665
-9 19 -17 41 -18 48 -1 7 -43 121 -93 252 -373 978 -907 2089 -1444 3005 -39
66 -74 122 -79 123 -4 2 -8 8 -8 14 0 22 -304 493 -474 733 -162 231 -391 526
-497 640 -15 17 -70 77 -122 135 -115 128 -279 286 -390 376 -178 143 -408
282 -497 299 -83 17 -244 14 -317 -5z"/>
</g>
</svg>
